<svg version="1.1" id="Layer_1" xmlns="http://www.w3.org/2000/svg" xmlns:xlink="http://www.w3.org/1999/xlink" x="0px" y="0px"
	 width="100%" viewBox="0 0 664 652" enable-background="new 0 0 664 652" xml:space="preserve">
<path fill="#DE131E" opacity="1.000000" stroke="none" 
	d="
M374.000000,653.000000 
	C249.333359,653.000000 125.166710,653.000000 1.000050,653.000000 
	C1.000033,435.666718 1.000033,218.333450 1.000017,1.000138 
	C222.333237,1.000092 443.666473,1.000092 664.999756,1.000046 
	C664.999878,218.333191 664.999878,435.666382 664.999939,652.999756 
	C568.166687,653.000000 471.333344,653.000000 374.000000,653.000000 
M493.851379,385.827118 
	C493.851379,385.827118 493.829895,385.942352 493.191132,385.851685 
	C492.461456,386.206482 491.731750,386.561279 490.334503,386.995331 
	C489.895386,387.079529 489.456299,387.163696 488.544800,387.191223 
	C488.201416,387.290527 488.004028,387.516998 487.453491,387.980713 
	C487.292450,388.036438 487.131439,388.092163 486.213562,388.031555 
	C482.442230,389.286377 478.670898,390.541168 474.146637,391.962738 
	C468.099762,394.041199 462.052887,396.119659 455.433075,398.058197 
	C454.952667,398.324219 454.472260,398.590240 453.320160,398.935303 
	C452.877747,399.016998 452.435303,399.098694 451.517181,399.125946 
	C451.177032,399.233612 450.979797,399.463715 450.454346,399.975891 
	C450.454346,399.975891 450.007050,400.193542 449.431702,400.070129 
	C448.952545,400.345856 448.473389,400.621613 447.322937,400.959625 
	C446.880707,401.034180 446.438446,401.108734 445.506805,401.125763 
	C445.158905,401.253540 444.970642,401.502197 444.857147,401.865265 
	C444.857147,401.865265 444.850494,401.950104 444.136108,401.924133 
	C442.417389,402.570587 440.698669,403.217041 438.871643,403.851929 
	C438.871643,403.851929 438.859833,403.960144 438.088684,403.935364 
	C434.024689,405.218353 429.960663,406.501343 425.405182,407.905762 
	C425.251770,407.976013 425.098328,408.046265 424.374939,408.000092 
	C423.915466,408.295349 423.455994,408.590576 422.330811,408.972931 
	C421.894562,409.067719 421.458282,409.162506 420.549805,409.202484 
	C420.207367,409.294769 420.001862,409.514862 419.449402,409.973480 
	C419.449402,409.973480 418.991241,410.164612 418.265839,410.064941 
	C415.840851,411.009766 413.415833,411.954559 410.327972,412.982330 
	C409.891266,413.066345 409.454529,413.150391 408.550781,413.153931 
	C408.203339,413.236908 408.000153,413.454468 407.435455,413.926208 
	C407.273926,413.988922 407.112427,414.051666 406.377991,413.988922 
	C405.916962,414.295044 405.455963,414.601135 404.328766,414.979095 
	C403.892273,415.069122 403.455750,415.159149 402.552856,415.175171 
	C402.209839,415.258667 402.003143,415.473297 401.429291,415.931000 
	C401.268555,415.991943 401.107788,416.052856 400.378174,415.961884 
	C399.914032,416.255219 399.449890,416.548523 398.322449,416.941589 
	C397.885834,417.033173 397.449249,417.124786 396.545441,417.165070 
	C396.202148,417.254150 396.003571,417.473907 395.823608,417.807281 
	C395.823608,417.807281 395.802887,417.932800 395.046326,417.867371 
	C391.342133,419.318481 386.738190,418.802765 386.773468,425.430908 
	C387.040405,475.590210 386.961914,525.751709 386.828796,575.912048 
	C386.817383,580.205811 388.336304,581.188660 392.336823,581.165710 
	C418.332886,581.017029 444.330261,581.108582 470.327026,581.047852 
	C472.239319,581.043396 474.150238,580.462036 476.591400,580.053467 
	C476.762360,579.999268 476.933350,579.945068 478.002747,580.075439 
	C504.966248,580.096680 531.931274,579.976013 558.891968,580.261169 
	C564.159729,580.316895 565.196350,578.499695 565.186462,573.670837 
	C565.046265,505.263153 565.086060,436.855133 565.082397,368.447174 
	C565.082336,366.675598 565.082458,364.904022 565.082458,361.969910 
	C562.062683,363.260681 560.039856,364.125305 557.341431,365.005890 
	C556.898193,365.077332 556.454895,365.148773 555.536194,365.163971 
	C555.197571,365.270050 554.995850,365.497498 554.454895,365.984619 
	C554.454895,365.984619 554.007019,366.197235 553.431213,366.075714 
	C552.954651,366.357422 552.478027,366.639130 551.331238,366.981506 
	C550.890686,367.060089 550.450134,367.138672 549.534729,367.151245 
	C549.186157,367.246979 548.985901,367.473663 548.828064,367.818970 
	C548.828064,367.818970 548.815369,367.924744 548.186340,367.876190 
	C547.455566,368.201691 546.724854,368.527191 545.326294,368.940430 
	C544.888611,369.036316 544.450989,369.132172 543.531677,369.177612 
	C543.187317,369.289856 542.990173,369.525299 542.872437,369.872375 
	C542.872437,369.872375 542.863831,369.940552 542.221558,369.906738 
	C541.493042,370.254761 540.764526,370.602783 539.348694,370.984528 
	C538.895508,371.050659 538.442383,371.116791 537.511230,371.111877 
	C537.162292,371.226624 536.976868,371.467346 536.827820,371.828979 
	C536.827820,371.828979 536.816772,371.955780 536.106995,371.921051 
	C534.390625,372.554688 532.674255,373.188324 530.837036,373.811554 
	C530.837036,373.811554 530.826355,373.932343 530.135742,373.851654 
	C529.088806,374.193390 528.041931,374.535095 526.333313,374.988647 
	C525.895935,375.079346 525.458496,375.170044 524.547668,375.179321 
	C524.196777,375.254578 523.979614,375.466644 523.409973,375.917633 
	C523.409973,375.917633 522.948608,376.102112 522.374634,375.968109 
	C521.913940,376.272156 521.453186,376.576202 520.331238,376.988861 
	C519.896179,377.085297 519.461182,377.181732 518.549561,377.230225 
	C518.207092,377.329834 518.002380,377.554718 517.449341,377.994263 
	C517.449341,377.994263 516.981750,378.154572 516.260620,378.010925 
	C513.839294,378.974091 511.417999,379.937256 508.285156,380.987366 
	C507.181702,381.379150 506.078278,381.770966 504.405090,382.041565 
	C503.935822,382.330841 503.466553,382.620117 502.333435,382.996307 
	C501.898041,383.091949 501.462677,383.187592 500.561371,383.199310 
	C500.212921,383.284851 500.012268,383.505005 499.861420,383.845306 
	C499.861420,383.845306 499.846710,383.943237 499.200836,383.854645 
	C498.465027,384.204041 497.729187,384.553436 496.333618,385.007843 
	C495.896454,385.088745 495.459259,385.169678 494.555054,385.178833 
	C494.208405,385.269806 494.012299,385.492950 493.851379,385.827118 
M277.890198,77.924110 
	C277.714050,74.139084 274.794617,75.100487 272.689453,75.098770 
	C215.705658,75.052185 158.721680,75.114326 101.738289,74.954849 
	C96.963448,74.941490 95.947227,76.578941 95.952286,80.993881 
	C96.064568,178.965744 96.046097,276.937744 96.063728,374.909729 
	C96.064018,376.509613 96.204041,378.109497 96.280708,379.749146 
	C97.972084,379.749146 99.179771,379.972473 100.274918,379.715729 
	C117.318314,375.719940 134.348846,371.669189 151.378998,367.617035 
	C191.466553,358.078613 231.531067,348.441345 271.666901,339.110657 
	C276.439331,338.001190 278.018372,336.275726 278.009216,331.282379 
	C277.855255,247.139923 277.908844,162.997055 277.890198,77.924110 
M564.952576,89.508553 
	C564.949463,87.009705 564.945679,84.510857 564.943298,82.012009 
	C564.936646,75.068565 564.936829,75.062149 557.867371,75.061874 
	C502.890076,75.059753 447.912537,75.132034 392.935913,74.939644 
	C387.909363,74.922058 386.956451,76.516777 386.964783,81.155647 
	C387.102325,157.623810 387.066437,234.092285 387.069458,310.560699 
	C387.069550,312.514252 387.069489,314.467834 387.069489,317.049316 
	C394.241791,315.941986 400.706238,314.875427 407.191498,313.955170 
	C428.962463,310.865967 450.754303,307.921051 472.513092,304.748901 
	C500.991150,300.597198 529.441895,296.258026 557.912354,292.053467 
	C564.936584,291.016113 564.952332,291.112152 564.952332,283.926178 
	C564.952759,219.452789 564.952576,154.979401 564.952576,89.508553 
M277.902527,576.219299 
	C277.902527,536.004944 277.902527,495.790619 277.902527,455.028076 
	C276.134735,455.495575 275.341156,455.617767 274.616058,455.909973 
	C251.435440,465.253265 228.249084,474.582581 205.089325,483.977386 
	C170.441788,498.032257 135.839905,512.200378 101.141083,526.127197 
	C97.197922,527.709839 95.932648,529.879089 95.989487,533.944702 
	C96.178108,547.437988 96.044899,560.935730 96.041336,574.431763 
	C96.039635,580.912964 96.045937,580.944214 102.682648,580.945679 
	C158.832870,580.957642 214.983109,580.957458 271.133331,580.960266 
	C272.133026,580.960266 273.137451,580.887573 274.131531,580.960144 
	C276.905487,581.162842 278.178619,579.938477 277.902527,576.219299 
z"/>
<path fill="#020001" opacity="1.000000" stroke="none" 
	d="
M277.903320,78.389206 
	C277.908844,162.997055 277.855255,247.139923 278.009216,331.282379 
	C278.018372,336.275726 276.439331,338.001190 271.666901,339.110657 
	C231.531067,348.441345 191.466553,358.078613 151.378998,367.617035 
	C134.348846,371.669189 117.318314,375.719940 100.274918,379.715729 
	C99.179771,379.972473 97.972084,379.749146 96.280708,379.749146 
	C96.204041,378.109497 96.064018,376.509613 96.063728,374.909729 
	C96.046097,276.937744 96.064568,178.965744 95.952286,80.993881 
	C95.947227,76.578941 96.963448,74.941490 101.738289,74.954849 
	C158.721680,75.114326 215.705658,75.052185 272.689453,75.098770 
	C274.794617,75.100487 277.714050,74.139084 277.903320,78.389206 
z"/>
<path fill="#010000" opacity="1.000000" stroke="none" 
	d="
M564.952637,90.007278 
	C564.952576,154.979401 564.952759,219.452789 564.952332,283.926178 
	C564.952332,291.112152 564.936584,291.016113 557.912354,292.053467 
	C529.441895,296.258026 500.991150,300.597198 472.513092,304.748901 
	C450.754303,307.921051 428.962463,310.865967 407.191498,313.955170 
	C400.706238,314.875427 394.241791,315.941986 387.069489,317.049316 
	C387.069489,314.467834 387.069550,312.514252 387.069458,310.560699 
	C387.066437,234.092285 387.102325,157.623810 386.964783,81.155647 
	C386.956451,76.516777 387.909363,74.922058 392.935913,74.939644 
	C447.912537,75.132034 502.890076,75.059753 557.867371,75.061874 
	C564.936829,75.062149 564.936646,75.068565 564.943298,82.012009 
	C564.945679,84.510857 564.949463,87.009705 564.952637,90.007278 
z"/>
<path fill="#000000" opacity="1.000000" stroke="none" 
	d="
M544.013306,369.228088 
	C544.450989,369.132172 544.888611,369.036316 545.882812,369.036926 
	C547.231384,368.730499 548.023376,368.327606 548.815369,367.924744 
	C548.815369,367.924744 548.828064,367.818970 549.083862,367.772217 
	C549.599854,367.604584 549.823120,367.435181 550.009583,367.217285 
	C550.450134,367.138672 550.890686,367.060089 551.850708,367.061401 
	C552.915771,366.826630 553.461426,366.511932 554.007019,366.197266 
	C554.007019,366.197235 554.454895,365.984619 554.898682,365.865082 
	C555.608398,365.625092 555.831482,365.449982 556.011658,365.220215 
	C556.454895,365.148773 556.898193,365.077332 557.967651,365.170959 
	C563.088623,365.414886 564.074524,367.835175 564.066467,372.059753 
	C563.940369,438.298370 563.981812,504.537231 563.966370,570.776062 
	C563.964722,577.718445 563.583740,578.082031 556.581116,578.087769 
	C532.948181,578.107239 509.314850,578.035278 485.682709,578.175781 
	C482.819977,578.192810 479.963654,579.292725 477.104370,579.890808 
	C476.933350,579.945068 476.762360,579.999268 475.860962,580.042053 
	C448.466980,580.008728 421.803406,580.001587 395.139954,579.954590 
	C388.337097,579.942627 388.046356,579.636597 388.044769,572.922058 
	C388.033264,524.927002 388.032471,476.931976 388.057129,428.936920 
	C388.058685,425.867889 387.020630,422.312622 392.052216,421.618927 
	C393.445374,421.426819 394.560303,419.216919 395.802856,417.932800 
	C395.802887,417.932800 395.823608,417.807281 396.088318,417.766235 
	C396.611755,417.605988 396.831635,417.436371 397.012634,417.216370 
	C397.449249,417.124786 397.885834,417.033173 398.835510,417.001862 
	C399.881409,416.746002 400.414215,416.429901 400.947052,416.113770 
	C401.107788,416.052856 401.268555,415.991943 401.886230,415.838104 
	C402.612244,415.639496 402.837616,415.474182 403.019257,415.249207 
	C403.455750,415.159149 403.892273,415.069122 404.847046,415.051697 
	C405.893890,414.787659 406.422394,414.451019 406.950928,414.114380 
	C407.112427,414.051666 407.273926,413.988922 407.890533,413.825562 
	C408.606842,413.612427 408.830933,413.448914 409.017822,413.234406 
	C409.454529,413.150391 409.891266,413.066345 410.955566,413.102264 
	C414.539429,413.382751 417.595367,413.784729 418.991241,410.164612 
	C418.991241,410.164612 419.449402,409.973480 419.898743,409.874146 
	C420.617737,409.660889 420.842377,409.488403 421.022034,409.257324 
	C421.458282,409.162506 421.894562,409.067719 422.846313,409.033875 
	C423.889526,408.768707 424.417206,408.442627 424.944885,408.116547 
	C425.098328,408.046265 425.251770,407.976013 426.085693,407.898438 
	C431.218018,407.874878 435.753387,408.115570 438.859833,403.960144 
	C438.859833,403.960144 438.871643,403.851929 439.311523,403.896179 
	C441.451111,403.276978 443.150787,402.613525 444.850494,401.950104 
	C444.850494,401.950104 444.857147,401.865265 445.101807,401.801147 
	C445.600952,401.596893 445.817535,401.412323 445.996216,401.183289 
	C446.438446,401.108734 446.880707,401.034180 447.842773,401.036743 
	C448.910767,400.807068 449.458893,400.500305 450.007019,400.193542 
	C450.007050,400.193542 450.454346,399.975891 450.891144,399.838135 
	C451.584412,399.571655 451.806061,399.398315 451.992889,399.180420 
	C452.435303,399.098694 452.877747,399.016998 453.835144,399.013123 
	C454.902130,398.793304 455.454071,398.495728 456.006012,398.198120 
	C462.052887,396.119659 468.099762,394.041199 474.946808,391.920197 
	C479.488129,390.634399 483.229248,389.391144 486.970398,388.147919 
	C487.131439,388.092163 487.292450,388.036438 487.906799,387.876404 
	C488.622070,387.651215 488.841125,387.476471 489.017181,387.247864 
	C489.456299,387.163696 489.895386,387.079529 490.895386,387.091492 
	C492.247437,386.772522 493.038666,386.357422 493.829895,385.942322 
	C493.829895,385.942352 493.851379,385.827118 494.110474,385.792725 
	C494.629303,385.643433 494.846832,385.474182 495.022095,385.250610 
	C495.459259,385.169678 495.896454,385.088745 496.893280,385.085571 
	C498.250854,384.756592 499.048798,384.349945 499.846741,383.943237 
	C499.846710,383.943237 499.861420,383.845306 500.112793,383.810822 
	C500.628510,383.670227 500.849548,383.505859 501.027283,383.283234 
	C501.462677,383.187592 501.898041,383.091949 502.851562,383.053070 
	C503.904755,382.794128 504.439789,382.478424 504.974823,382.162720 
	C506.078278,381.770966 507.181702,381.379150 508.929504,381.108521 
	C512.043152,380.204651 514.512451,379.179626 516.981750,378.154572 
	C516.981750,378.154572 517.449341,377.994263 517.902466,377.904175 
	C518.628723,377.697601 518.852295,377.518982 519.026123,377.278137 
	C519.461182,377.181732 519.896179,377.085297 520.846619,377.035156 
	C521.890869,376.754974 522.419739,376.428558 522.948608,376.102112 
	C522.948608,376.102112 523.409973,375.917633 523.862793,375.830780 
	C524.590210,375.640472 524.825378,375.479401 525.021118,375.260742 
	C525.458496,375.170044 525.895935,375.079346 526.924988,375.081238 
	C528.619873,374.760010 529.723145,374.346191 530.826355,373.932343 
	C530.826355,373.932343 530.837036,373.811554 531.284363,373.858704 
	C533.426697,373.255798 535.121765,372.605774 536.816772,371.955750 
	C536.816772,371.955780 536.827820,371.828979 537.087646,371.767700 
	C537.595093,371.573273 537.808960,371.398743 537.989197,371.182922 
	C538.442383,371.116791 538.895508,371.050659 539.909851,371.125214 
	C541.268616,370.824127 542.066223,370.382324 542.863831,369.940552 
	C542.863831,369.940552 542.872437,369.872375 543.113037,369.822571 
	C543.618225,369.645416 543.838074,369.463837 544.013306,369.228088 
z"/>
<path fill="#030101" opacity="1.000000" stroke="none" 
	d="
M277.902222,576.684998 
	C278.178619,579.938477 276.905487,581.162842 274.131531,580.960144 
	C273.137451,580.887573 272.133026,580.960266 271.133331,580.960266 
	C214.983109,580.957458 158.832870,580.957642 102.682648,580.945679 
	C96.045937,580.944214 96.039635,580.912964 96.041336,574.431763 
	C96.044899,560.935730 96.178108,547.437988 95.989487,533.944702 
	C95.932648,529.879089 97.197922,527.709839 101.141083,526.127197 
	C135.839905,512.200378 170.441788,498.032257 205.089325,483.977386 
	C228.249084,474.582581 251.435440,465.253265 274.616058,455.909973 
	C275.341156,455.617767 276.134735,455.495575 277.902527,455.028076 
	C277.902527,495.790619 277.902527,536.004944 277.902222,576.684998 
z"/>
<path fill="#2D0101" opacity="1.000000" stroke="none" 
	d="
M477.553558,579.983154 
	C479.963654,579.292725 482.819977,578.192810 485.682709,578.175781 
	C509.314850,578.035278 532.948181,578.107239 556.581116,578.087769 
	C563.583740,578.082031 563.964722,577.718445 563.966370,570.776062 
	C563.981812,504.537231 563.940369,438.298370 564.066467,372.059753 
	C564.074524,367.835175 563.088623,365.414886 558.305420,365.162964 
	C560.039856,364.125305 562.062683,363.260681 565.082458,361.969910 
	C565.082458,364.904022 565.082336,366.675598 565.082397,368.447174 
	C565.086060,436.855133 565.046265,505.263153 565.186462,573.670837 
	C565.196350,578.499695 564.159729,580.316895 558.891968,580.261169 
	C531.931274,579.976013 504.966248,580.096680 477.553558,579.983154 
z"/>
<path fill="#2D0101" opacity="1.000000" stroke="none" 
	d="
M395.424591,417.900085 
	C394.560303,419.216919 393.445374,421.426819 392.052216,421.618927 
	C387.020630,422.312622 388.058685,425.867889 388.057129,428.936920 
	C388.032471,476.931976 388.033264,524.927002 388.044769,572.922058 
	C388.046356,579.636597 388.337097,579.942627 395.139954,579.954590 
	C421.803406,580.001587 448.466980,580.008728 475.596161,580.089722 
	C474.150238,580.462036 472.239319,581.043396 470.327026,581.047852 
	C444.330261,581.108582 418.332886,581.017029 392.336823,581.165710 
	C388.336304,581.188660 386.817383,580.205811 386.828796,575.912048 
	C386.961914,525.751709 387.040405,475.590210 386.773468,425.430908 
	C386.738190,418.802765 391.342133,419.318481 395.424591,417.900085 
z"/>
<path fill="#2D0101" opacity="1.000000" stroke="none" 
	d="
M438.474243,403.947754 
	C435.753387,408.115570 431.218018,407.874878 426.331421,407.837769 
	C429.960663,406.501343 434.024689,405.218353 438.474243,403.947754 
z"/>
<path fill="#2D0101" opacity="1.000000" stroke="none" 
	d="
M486.591980,388.089722 
	C483.229248,389.391144 479.488129,390.634399 475.323273,391.836792 
	C478.670898,390.541168 482.442230,389.286377 486.591980,388.089722 
z"/>
<path fill="#2D0101" opacity="1.000000" stroke="none" 
	d="
M418.628540,410.114777 
	C417.595367,413.784729 414.539429,413.382751 411.286987,413.060791 
	C413.415833,411.954559 415.840851,411.009766 418.628540,410.114777 
z"/>
<path fill="#2D0101" opacity="1.000000" stroke="none" 
	d="
M516.621216,378.082764 
	C514.512451,379.179626 512.043152,380.204651 509.285278,381.065033 
	C511.417999,379.937256 513.839294,378.974091 516.621216,378.082764 
z"/>
<path fill="#2D0101" opacity="1.000000" stroke="none" 
	d="
M536.461914,371.938416 
	C535.121765,372.605774 533.426697,373.255798 531.344788,373.863892 
	C532.674255,373.188324 534.390625,372.554688 536.461914,371.938416 
z"/>
<path fill="#2D0101" opacity="1.000000" stroke="none" 
	d="
M444.493286,401.937134 
	C443.150787,402.613525 441.451111,403.276978 439.365662,403.901947 
	C440.698669,403.217041 442.417389,402.570587 444.493286,401.937134 
z"/>
<path fill="#2D0101" opacity="1.000000" stroke="none" 
	d="
M530.481079,373.891998 
	C529.723145,374.346191 528.619873,374.760010 527.255859,375.025330 
	C528.041931,374.535095 529.088806,374.193390 530.481079,373.891998 
z"/>
<path fill="#2D0101" opacity="1.000000" stroke="none" 
	d="
M542.542725,369.923645 
	C542.066223,370.382324 541.268616,370.824127 540.253540,371.108368 
	C540.764526,370.602783 541.493042,370.254761 542.542725,369.923645 
z"/>
<path fill="#2D0101" opacity="1.000000" stroke="none" 
	d="
M548.500854,367.900452 
	C548.023376,368.327606 547.231384,368.730499 546.216736,368.993073 
	C546.724854,368.527191 547.455566,368.201691 548.500854,367.900452 
z"/>
<path fill="#2D0101" opacity="1.000000" stroke="none" 
	d="
M499.523804,383.898956 
	C499.048798,384.349945 498.250854,384.756592 497.223145,385.033051 
	C497.729187,384.553436 498.465027,384.204041 499.523804,383.898956 
z"/>
<path fill="#2D0101" opacity="1.000000" stroke="none" 
	d="
M493.510498,385.897003 
	C493.038666,386.357422 492.247437,386.772522 491.229126,387.051849 
	C491.731750,386.561279 492.461456,386.206482 493.510498,385.897003 
z"/>
<path fill="#2D0101" opacity="1.000000" stroke="none" 
	d="
M400.662598,416.037842 
	C400.414215,416.429901 399.881409,416.746002 399.167145,416.951965 
	C399.449890,416.548523 399.914032,416.255219 400.662598,416.037842 
z"/>
<path fill="#2D0101" opacity="1.000000" stroke="none" 
	d="
M406.664459,414.051636 
	C406.422394,414.451019 405.893890,414.787659 405.180176,415.015747 
	C405.455963,414.601135 405.916962,414.295044 406.664459,414.051636 
z"/>
<path fill="#2D0101" opacity="1.000000" stroke="none" 
	d="
M424.659912,408.058319 
	C424.417206,408.442627 423.889526,408.768707 423.179199,408.990295 
	C423.455994,408.590576 423.915466,408.295349 424.659912,408.058319 
z"/>
<path fill="#2D0101" opacity="1.000000" stroke="none" 
	d="
M449.719360,400.131836 
	C449.458893,400.500305 448.910767,400.807068 448.178436,401.005615 
	C448.473389,400.621613 448.952545,400.345856 449.719360,400.131836 
z"/>
<path fill="#2D0101" opacity="1.000000" stroke="none" 
	d="
M455.719543,398.128174 
	C455.454071,398.495728 454.902130,398.793304 454.171021,398.973602 
	C454.472260,398.590240 454.952667,398.324219 455.719543,398.128174 
z"/>
<path fill="#2D0101" opacity="1.000000" stroke="none" 
	d="
M553.719116,366.136475 
	C553.461426,366.511932 552.915771,366.826630 552.185791,367.031067 
	C552.478027,366.639130 552.954651,366.357422 553.719116,366.136475 
z"/>
<path fill="#2D0101" opacity="1.000000" stroke="none" 
	d="
M504.689941,382.102142 
	C504.439789,382.478424 503.904755,382.794128 503.183533,383.009613 
	C503.466553,382.620117 503.935822,382.330841 504.689941,382.102142 
z"/>
<path fill="#2D0101" opacity="1.000000" stroke="none" 
	d="
M522.661621,376.035126 
	C522.419739,376.428558 521.890869,376.754974 521.177246,376.980835 
	C521.453186,376.576202 521.913940,376.272156 522.661621,376.035126 
z"/>
<path fill="#2D0101" opacity="1.000000" stroke="none" 
	d="
M420.785919,409.229919 
	C420.842377,409.488403 420.617737,409.660889 420.140747,409.818756 
	C420.001862,409.514862 420.207367,409.294769 420.785919,409.229919 
z"/>
<path fill="#2D0101" opacity="1.000000" stroke="none" 
	d="
M555.773926,365.192078 
	C555.831482,365.449982 555.608398,365.625092 555.136719,365.795929 
	C554.995850,365.497498 555.197571,365.270050 555.773926,365.192078 
z"/>
<path fill="#2D0101" opacity="1.000000" stroke="none" 
	d="
M549.772156,367.184265 
	C549.823120,367.435181 549.599854,367.604584 549.136841,367.778381 
	C548.985901,367.473663 549.186157,367.246979 549.772156,367.184265 
z"/>
<path fill="#2D0101" opacity="1.000000" stroke="none" 
	d="
M396.779053,417.190735 
	C396.831635,417.436371 396.611755,417.605988 396.151337,417.774750 
	C396.003571,417.473907 396.202148,417.254150 396.779053,417.190735 
z"/>
<path fill="#2D0101" opacity="1.000000" stroke="none" 
	d="
M543.772461,369.202850 
	C543.838074,369.463837 543.618225,369.645416 543.146912,369.828369 
	C542.990173,369.525299 543.187317,369.289856 543.772461,369.202850 
z"/>
<path fill="#2D0101" opacity="1.000000" stroke="none" 
	d="
M402.786072,415.212189 
	C402.837616,415.474182 402.612244,415.639496 402.137939,415.782166 
	C402.003143,415.473297 402.209839,415.258667 402.786072,415.212189 
z"/>
<path fill="#2D0101" opacity="1.000000" stroke="none" 
	d="
M537.750244,371.147400 
	C537.808960,371.398743 537.595093,371.573273 537.151245,371.770233 
	C536.976868,371.467346 537.162292,371.226624 537.750244,371.147400 
z"/>
<path fill="#2D0101" opacity="1.000000" stroke="none" 
	d="
M408.784302,413.194153 
	C408.830933,413.448914 408.606842,413.612427 408.143433,413.765808 
	C408.000153,413.454468 408.203339,413.236908 408.784302,413.194153 
z"/>
<path fill="#2D0101" opacity="1.000000" stroke="none" 
	d="
M524.784424,375.220032 
	C524.825378,375.479401 524.590210,375.640472 524.105896,375.779724 
	C523.979614,375.466644 524.196777,375.254578 524.784424,375.220032 
z"/>
<path fill="#2D0101" opacity="1.000000" stroke="none" 
	d="
M488.781006,387.219543 
	C488.841125,387.476471 488.622070,387.651215 488.156372,387.821350 
	C488.004028,387.516998 488.201416,387.290527 488.781006,387.219543 
z"/>
<path fill="#2D0101" opacity="1.000000" stroke="none" 
	d="
M518.787842,377.254181 
	C518.852295,377.518982 518.628723,377.697601 518.145508,377.859497 
	C518.002380,377.554718 518.207092,377.329834 518.787842,377.254181 
z"/>
<path fill="#2D0101" opacity="1.000000" stroke="none" 
	d="
M445.751526,401.154541 
	C445.817535,401.412323 445.600952,401.596893 445.144226,401.804321 
	C444.970642,401.502197 445.158905,401.253540 445.751526,401.154541 
z"/>
<path fill="#2D0101" opacity="1.000000" stroke="none" 
	d="
M500.794312,383.241272 
	C500.849548,383.505859 500.628510,383.670227 500.161804,383.818054 
	C500.012268,383.505005 500.212921,383.284851 500.794312,383.241272 
z"/>
<path fill="#2D0101" opacity="1.000000" stroke="none" 
	d="
M451.755035,399.153198 
	C451.806061,399.398315 451.584412,399.571655 451.126709,399.758301 
	C450.979797,399.463715 451.177032,399.233612 451.755035,399.153198 
z"/>
<path fill="#2D0101" opacity="1.000000" stroke="none" 
	d="
M494.788574,385.214722 
	C494.846832,385.474182 494.629303,385.643433 494.168091,385.803345 
	C494.012299,385.492950 494.208405,385.269806 494.788574,385.214722 
z"/>
</svg>